<?xml version="1.0" encoding="utf-8" ?>
<svg xmlns="http://www.w3.org/2000/svg" xmlns:xlink="http://www.w3.org/1999/xlink" width="89" height="60">
	<path fill="#007264"
		d="M58.95649 50.114838Q59.485847 51.060654 59.204159 52.137501Q58.92247 53.214348 57.963196 53.787819Q57.003922 54.351196 55.94072 54.047451Q54.877518 53.743706 54.31414 52.773964L41.134399 29.94989Q40.474197 30.209709 39.591373 30.572334Q38.708549 30.934959 37.698807 31.523758Q35.804558 32.604156 34.320972 34.026245Q32.837387 35.448334 31.451187 36.984818Q30.064987 38.521301 28.504578 39.980774Q26.944168 41.440247 24.917206 42.609619Q23.513062 43.419357 22.134338 43.962547Q20.755615 44.505737 19.618019 44.605179Q18.264717 44.731537 17.147308 44.253021Q16.0299 43.774506 15.264275 42.434662L6.2236938 26.739349Q5.4894714 25.479134 5.9147148 24.299667Q6.3399582 23.120201 7.5725098 22.423737Q8.3549576 21.962418 9.7703171 21.47007Q11.185677 20.977722 12.836929 20.020691Q14.734543 18.92646 16.223362 17.511101Q17.712181 16.095741 19.098194 14.557575Q20.484207 13.019409 22.032654 11.55975Q23.5811 10.10009 25.608437 8.9310913Q27.022675 8.1112595 28.401398 7.5848923Q29.780121 7.0585251 30.917717 6.9388962Q32.260551 6.8091736 33.372913 7.2944183Q34.485275 7.7796631 35.260994 9.1296005L58.95649 50.114838ZM38.390038 25.218193L31.067253 12.522949Q30.509483 12.567436 29.970219 12.770992Q29.430954 12.974548 28.999542 13.205582Q28.56813 13.436615 28.318405 13.573441Q26.472382 14.61982 25.062069 15.992374Q23.651756 17.364929 22.308361 18.881039Q20.964966 20.397148 19.35334 21.884098Q17.741714 23.371048 15.509888 24.66304Q14.767441 25.090714 13.863869 25.571472Q12.960297 26.052231 12.149437 26.332611L19.471848 39.007294Q20.029617 38.963181 20.562153 38.764671Q21.094688 38.566162 21.532829 38.341858Q21.97097 38.117554 22.206863 37.980728Q24.053261 36.930984 25.470303 35.560112Q26.887344 34.18924 28.235973 32.666401Q29.584602 31.143562 31.189312 29.656612Q32.794022 28.169662 35.015755 26.87767Q35.758202 26.449997 36.661587 25.969238Q37.564972 25.48848 38.390038 25.218193ZM48.532326 25.974846L58.28096 9.1296005Q59.046585 7.7796631 60.158947 7.2944183Q61.271309 6.8091736 62.624237 6.9388962Q63.762207 7.0585251 65.14093 7.5848923Q66.519653 8.1112595 67.923798 8.9310913Q69.961227 10.10009 71.516403 11.55975Q73.071579 13.019409 74.450867 14.557575Q75.830147 16.095741 77.325699 17.511101Q78.821243 18.92646 80.705399 20.020691Q82.356651 20.977722 83.766777 21.47007Q85.176903 21.962418 85.969818 22.423737Q87.20237 23.120201 87.627609 24.299667Q88.052856 25.479134 87.332092 26.739349L78.277679 42.434662Q77.512054 43.774506 76.394646 44.253021Q75.277237 44.731537 73.924309 44.605179Q72.786713 44.505737 71.40799 43.962547Q70.029266 43.419357 68.625122 42.609619Q66.587692 41.440247 65.032333 39.980774Q63.476967 38.521301 62.090954 36.984818Q60.704941 35.448334 59.221169 34.026245Q57.737396 32.604156 55.843521 31.523758Q54.84761 30.934959 53.957684 30.572334Q53.067757 30.209709 52.407555 29.94989L51.631836 31.31366L48.532326 25.974846ZM55.15229 25.218193Q55.976982 25.48848 56.87532 25.969238Q57.773659 26.449997 58.516106 26.87767Q60.747932 28.169662 62.359558 29.656612Q63.971184 31.143562 65.312897 32.666401Q66.65461 34.18924 68.066788 35.560112Q69.478973 36.930984 71.324997 37.980728Q71.58519 38.117554 72.016418 38.341858Q72.447639 38.566162 72.979988 38.764671Q73.512337 38.963181 74.07048 39.007294L81.396255 26.332611Q80.582031 26.052231 79.678459 25.571472Q78.774887 25.090714 78.03244 24.66304Q75.800613 23.371048 74.188988 21.884098Q72.577362 20.397148 71.233963 18.881039Q69.890572 17.364929 68.480255 15.992374Q67.069946 14.61982 65.223549 13.573441Q64.973824 13.436615 64.542603 13.205582Q64.111374 12.974548 63.567062 12.770992Q63.022751 12.567436 62.488533 12.522949L55.15229 25.218193ZM44.989441 42.791679L39.227814 52.773964Q38.66481 53.743706 37.601421 54.047451Q36.538033 54.351196 35.568665 53.787819Q34.623222 53.214348 34.334805 52.137501Q34.046387 51.060654 34.585464 50.114838L41.92395 37.439407L44.989441 42.791679Z" />
</svg>
